<?xml version="1.0" encoding="utf-8"?>
<!-- Generator: Adobe Illustrator 16.0.3, SVG Export Plug-In . SVG Version: 6.00 Build 0)  -->
<!DOCTYPE svg PUBLIC "-//W3C//DTD SVG 1.1//EN" "http://www.w3.org/Graphics/SVG/1.1/DTD/svg11.dtd">
<svg version="1.1" id="Layer_1" xmlns="http://www.w3.org/2000/svg" xmlns:xlink="http://www.w3.org/1999/xlink" x="0px" y="0px"
	 width="155.976px" height="155.984px" viewBox="0 0 155.976 155.984" enable-background="new 0 0 155.976 155.984"
	 xml:space="preserve">
<g>
	<g>
		<path fill-rule="evenodd" clip-rule="evenodd" fill="#FEFEFE" d="M155.953,138.584c0,5.427-0.023,10.853,0.022,16.278
			c0.008,0.893-0.187,1.114-1.104,1.113c-51.125-0.025-102.25-0.028-153.375,0.009c-1.089,0.002-1.158-0.328-1.157-1.248
			C0.364,103.672,0.365,52.607,0.335,1.542c0-0.992,0.184-1.209,1.197-1.208c51.065,0.032,102.13,0.036,153.194-0.015
			c1.428-0.001,1.236,0.631,1.236,1.53c-0.012,45.337-0.01,90.675-0.01,136.012c-1.249-0.18-1.265-1.329-1.594-2.151
			c-4.055-10.132-7.811-20.377-11.598-30.611c-6.34-17.133-12.736-34.244-19.015-51.399c-2.962-8.095-5.728-16.263-8.547-24.41
			c-1.085-3.134-2.318-6.218-3.248-9.402c-0.45-1.539-1.369-2.045-2.926-2.041c-13.929,0.037-27.858,0.037-41.787-0.001
			c-1.48-0.004-2.292,0.573-2.934,1.87c-3.499,7.082-6.949,14.191-10.603,21.193C47.958,51.916,42.086,62.857,36.25,73.817
			c-3.626,6.81-7.199,13.65-10.842,20.451c-7.485,13.974-14.602,28.146-22.631,41.826c-0.41,0.698-1.235,1.438-0.727,2.274
			c0.445,0.731,1.439,0.437,2.199,0.43c5.24-0.05,10.475-0.032,15.719-0.281c6.735-0.319,13.481,0.402,20.235,0.371
			c2.541-0.012,3.697-0.865,4.661-3.141c4.092-9.658,8.619-19.121,13.129-28.591c0.967-2.03,2.239-2.781,4.482-2.766
			c12.783,0.089,25.567,0.04,38.35,0.046c2.721,0.001,2.781,0.014,3.698,2.482c3.635,9.78,6.98,19.656,9.758,29.718
			c0.573,2.08,0.647,2.142,2.856,2.173c6.569,0.094,13.132-0.275,19.695-0.296c4.871-0.016,9.748,0.36,14.63,0.308
			C152.967,138.805,154.46,138.734,155.953,138.584z"/>
		<path fill-rule="evenodd" clip-rule="evenodd" fill="#2691FE" d="M155.953,138.584c-0.549,0.721-1.324,0.69-2.118,0.675
			c-5-0.094-10.001-0.251-15.001-0.24c-7.533,0.016-15.066,0.114-22.598,0.268c-1.424,0.029-1.925-0.46-2.279-1.801
			c-2.82-10.652-6.466-21.041-10.21-31.397c-0.363-1.006-0.929-1.174-1.876-1.172c-13.629,0.025-27.258,0.027-40.887-0.004
			c-0.984-0.002-1.496,0.305-1.927,1.196c-5.035,10.407-9.92,20.883-14.512,31.493c-0.53,1.225-1.128,1.726-2.507,1.685
			c-5.541-0.162-11.085-0.275-16.629-0.268c-7.352,0.011-14.704,0.16-22.056,0.23c-2.639,0.025-2.813-0.304-1.457-2.641
			c11.876-20.479,22.485-41.643,33.646-62.507C43.919,58.44,52.432,42.847,60.265,26.9c1.353-2.755,2.724-5.503,3.998-8.294
			c0.44-0.965,1-1.277,2.045-1.261c6.088,0.095,12.178,0.159,18.267,0.154c8.38-0.006,16.761-0.04,25.14-0.171
			c1.503-0.023,2.04,0.507,2.504,1.851c13.489,39.085,27.853,77.852,42.66,116.454c0.293,0.765,0.427,1.626,1.074,2.228
			C155.953,138.102,155.953,138.343,155.953,138.584z"/>
		<path fill-rule="evenodd" clip-rule="evenodd" fill="#FEFEFE" d="M86.042,46.177c1.099,3.354,2.084,6.373,3.076,9.39
			c2.254,6.856,4.48,13.721,6.792,20.558c0.483,1.427,0.291,1.858-1.305,1.842c-7.293-0.07-14.588-0.028-21.883-0.036
			c-0.806-0.001-1.865,0.271-1.115-1.261C76.497,66.686,81.37,56.693,86.042,46.177z"/>
	</g>
</g>
</svg>
