<?xml version="1.0" encoding="utf-8"?>
<!-- Generator: Adobe Illustrator 16.0.3, SVG Export Plug-In . SVG Version: 6.00 Build 0)  -->
<!DOCTYPE svg PUBLIC "-//W3C//DTD SVG 1.1//EN" "http://www.w3.org/Graphics/SVG/1.1/DTD/svg11.dtd">
<svg version="1.1" id="Layer_1" xmlns="http://www.w3.org/2000/svg" xmlns:xlink="http://www.w3.org/1999/xlink" x="0px" y="0px"
	 width="588.48px" height="124.041px" viewBox="0 0 588.48 124.041" enable-background="new 0 0 588.48 124.041"
	 xml:space="preserve">
<g>
	<g>
		<path fill="#2691FE" d="M588.385,2.182c-6.032,8.183-12.023,16.395-18.106,24.54c-8.008,10.722-15.876,21.543-23.563,32.498
			c-0.815,1.162-0.866,1.961-0.129,3.198c11.688,19.608,24,38.822,36.457,57.944c0.524,0.806,1.709,1.56,1.161,2.656
			c-0.571,1.143-1.87,0.543-2.82,0.539c-7.872-0.035-15.744-0.195-23.616-0.209c-5.569-0.01-11.141,0.106-16.707,0.271
			c-1.369,0.04-2.003-0.459-2.589-1.646c-5.946-12.052-13.256-23.357-19.351-35.6c-3.119,5.16-6.346,9.979-9.634,14.759
			c-4.837,7.034-9.654,14.082-14.415,21.168c-0.664,0.986-1.344,1.339-2.505,1.31c-5.568-0.139-11.14-0.269-16.709-0.26
			c-7.448,0.01-14.896,0.158-22.345,0.224c-0.674,0.006-1.524,0.319-1.903-0.611c-0.328-0.81,0.388-1.208,0.771-1.698
			c15.706-20.166,31.068-40.584,45.925-61.387c0.877-1.228,0.866-2.072,0.139-3.341c-10.28-17.915-21.771-35.073-32.738-52.559
			c-0.191-0.308-0.4-0.606-0.58-0.922c-0.806-1.427-0.515-1.956,1.158-1.957c4.544-0.004,9.09-0.037,13.632,0.061
			c8.906,0.191,17.811,0.006,26.714-0.117c1.926-0.026,2.96,0.451,3.855,2.27c4.87,9.881,10.994,19.081,15.832,29.002
			c0.806-0.211,0.93-0.955,1.25-1.481c5.963-9.765,12.786-18.984,18.379-28.981c0.467-0.834,1.113-0.769,1.832-0.762
			c4.785,0.048,9.57,0.139,14.355,0.132c7.997-0.011,15.992-0.084,23.989-0.132c0.833-0.005,1.702-0.125,2.26,0.728
			C588.385,1.939,588.385,2.061,588.385,2.182z"/>
		<path fill="#92C8FE" d="M279.646,0.364c3.758,0,7.516,0,11.272,0c0.107,0.246,0.047,0.438-0.181,0.582
			c-3.637,0.553-7.275,0.553-10.914,0.003C279.598,0.805,279.539,0.61,279.646,0.364z"/>
		<path fill="#C9E3FE" d="M279.646,0.364c-0.004,0.104-0.013,0.208-0.024,0.311c-1.572,0.921-3.146,0.919-4.719,0.002
			c0.013-0.104,0.018-0.208,0.016-0.313C276.494,0.364,278.07,0.364,279.646,0.364z"/>
		<path fill="#CCE5FE" d="M290.939,0.689c-0.021-0.108-0.026-0.216-0.021-0.326c0.849,0,1.697,0,2.545,0
			c-0.006,0.106-0.001,0.212,0.015,0.318C292.634,1.399,291.788,1.396,290.939,0.689z"/>
		<path fill="#2691FE" d="M400.029,1.091c15.937,0,31.871,0,47.808,0.001c2.326,0,2.354,0.076,2.229,2.342
			c-0.438,7.915-0.874,15.829-1.242,23.747c-0.063,1.358-0.558,1.792-1.881,1.729c-17.794-0.857-35.598-0.76-53.403-0.483
			c-0.421,0.007-0.84,0.104-1.261,0.139c-3.417,0.289-3.414,0.288-3.599,3.804c-0.239,4.533-0.438,9.069-0.755,13.597
			c-0.089,1.274,0.074,1.815,1.544,1.867c7.873,0.274,15.748,0.263,23.62,0.188c7.807-0.074,15.61-0.372,23.415-0.62
			c1.564-0.05,2.148,0.448,2.033,2.1c-0.574,8.271-1.095,16.546-1.527,24.826c-0.071,1.38-0.618,1.567-1.767,1.55
			c-6.843-0.105-13.687-0.191-20.529-0.23c-9.024-0.054-18.041,0.246-27.059,0.563c-1.301,0.046-1.842,0.331-1.879,1.834
			c-0.138,5.564-0.411,11.13-0.778,16.686c-0.103,1.545,0.404,1.802,1.783,1.807c13.691,0.054,27.376-0.328,41.063-0.614
			c5.439-0.114,10.875-0.522,16.312-0.821c1.173-0.064,1.697,0.373,1.588,1.575c-0.779,8.621-1.271,17.263-1.707,25.905
			c-0.067,1.354-0.958,0.997-1.657,0.995c-6.604-0.009-13.206-0.043-19.811-0.076c-10.479-0.053-20.96-0.172-31.439-0.151
			c-15.022,0.027-30.046,0.157-45.069,0.237c-2.442,0.013-2.54-0.157-2.292-2.603c1.106-10.961,2.06-21.937,2.818-32.926
			c1.278-18.541,2.014-37.106,2.68-55.678c0.347-9.683,0.759-19.363,0.535-29.052c-0.041-1.743,0.473-2.279,2.244-2.272
			C368.038,1.117,384.034,1.091,400.029,1.091z"/>
		<path fill="#2691FE" d="M290.939,0.689c0.846-0.002,1.692-0.005,2.54-0.008c7.169,0.264,14.052,1.519,20.218,5.515
			c8.681,5.625,13.184,13.816,14.541,23.835c1.56,11.504-0.762,22.183-7.619,31.666c-6.344,8.771-15.377,13.184-25.696,15.394
			c-4.767,1.021-9.591,1.211-14.445,1.157c-5.937-0.065-11.873-0.017-17.81-0.089c-1.181-0.016-1.52,0.31-1.542,1.511
			c-0.248,13.86-0.884,27.716-0.663,41.583c0.029,1.828-0.486,2.434-2.347,2.37c-5.444-0.188-10.893-0.272-16.34-0.272
			c-5.508,0-11.015,0.164-16.523,0.229c-2.24,0.026-2.327-0.188-2.157-2.412c0.72-9.472,1.584-18.933,2.042-28.424
			c0.646-13.416,1.441-26.824,2.06-40.241c0.322-7.012,0.327-14.038,0.607-21.052c0.382-9.566,0.262-19.133,0.188-28.7
			c-0.01-1.283,0.473-1.708,1.713-1.675c5.082,0.139,10.167,0.347,15.248,0.294c7.806-0.08,15.609-0.354,23.414-0.544
			c2.178-0.053,4.357-0.101,6.536-0.15c1.573-0.001,3.146-0.001,4.72-0.002C283.394,0.68,287.166,0.685,290.939,0.689z"/>
		<path fill="#2691FE" d="M88.373,1.091c7.209,0,14.419,0.03,21.628-0.027c1.271-0.011,1.914,0.309,2.35,1.593
			c12.125,35.806,25.635,71.109,38.689,106.578c1.504,4.087,3.206,8.1,4.813,12.148c0.758,1.912,0.563,2.221-1.563,2.194
			c-5.207-0.062-10.414-0.235-15.621-0.229c-6.722,0.01-13.442,0.125-20.164,0.26c-1.343,0.027-1.931-0.188-2.366-1.729
			c-1.546-5.469-3.427-10.842-5.155-16.26c-3.621-11.345-7.233-22.692-10.834-34.044c-2.616-8.246-5.199-16.502-7.817-24.748
			c-1.667-5.251-3.346-10.499-5.086-15.726c-0.223-0.67-0.075-1.914-1.004-1.868c-0.807,0.04-0.928,1.245-1.257,1.966
			c-3.376,7.403-6.704,14.828-10.072,22.235c-4.334,9.534-8.713,19.047-13.036,28.586c-4.561,10.063-9.069,20.146-13.62,30.213
			c-1.518,3.357-3.131,6.675-4.614,10.048c-0.473,1.073-1.146,1.348-2.238,1.323c-5.509-0.127-11.021-0.265-16.53-0.256
			c-7.328,0.01-14.654,0.159-21.981,0.23c-2.418,0.023-2.648-0.38-1.46-2.434c11.977-20.694,22.713-42.059,33.979-63.137
			c8.499-15.901,17.157-31.721,25.074-47.928c1.248-2.554,2.537-5.09,3.696-7.684c0.471-1.053,1.084-1.345,2.201-1.337
			C73.711,1.117,81.042,1.091,88.373,1.091z"/>
		<path fill="#2691FE" d="M184.549,88.785c-7.506,0-15.012-0.037-22.517,0.028c-1.59,0.015-2.15-0.437-1.997-2.078
			c0.691-7.41,1.106-14.84,1.187-22.283c0.018-1.669,1.021-1.618,2.179-1.602c8.471,0.133,16.943,0.328,25.415,0.344
			c6.412,0.012,12.826-0.223,19.239-0.334c2.191-0.038,2.29,0.029,2.111,2.24c-0.591,7.357-1.091,14.722-1.1,22.105
			c-0.001,1.537-0.857,1.591-1.997,1.588C199.562,88.774,192.055,88.785,184.549,88.785z"/>
	</g>
</g>
</svg>
